<mxfile host="Electron" agent="Mozilla/5.0 (Windows NT 10.0; Win64; x64) AppleWebKit/537.36 (KHTML, like Gecko) draw.io/26.0.16 Chrome/132.0.6834.196 Electron/34.2.0 Safari/537.36" version="26.0.16">
  <diagram name="Page-1" id="WqpeDY9jaydvTUx-uUJb">
    <mxGraphModel dx="5556" dy="3474" grid="1" gridSize="10" guides="1" tooltips="1" connect="1" arrows="1" fold="1" page="1" pageScale="1" pageWidth="1100" pageHeight="850" math="0" shadow="0">
      <root>
        <mxCell id="0" />
        <mxCell id="1" parent="0" />
        <mxCell id="85Ydq0UuJS8T2cN9ZGe2-1" value="Game Structure" style="shape=umlFrame;whiteSpace=wrap;html=1;pointerEvents=0;width=110;height=30;" vertex="1" parent="1">
          <mxGeometry x="200" y="-70" width="670" height="1420" as="geometry" />
        </mxCell>
        <mxCell id="85Ydq0UuJS8T2cN9ZGe2-2" value="" style="edgeStyle=orthogonalEdgeStyle;rounded=0;orthogonalLoop=1;jettySize=auto;html=1;endArrow=none;startFill=0;dashed=1;" edge="1" parent="1" source="85Ydq0UuJS8T2cN9ZGe2-3" target="85Ydq0UuJS8T2cN9ZGe2-7">
          <mxGeometry relative="1" as="geometry">
            <mxPoint x="410" y="-265" as="sourcePoint" />
          </mxGeometry>
        </mxCell>
        <mxCell id="85Ydq0UuJS8T2cN9ZGe2-3" value="GameController" style="html=1;whiteSpace=wrap;" vertex="1" parent="1">
          <mxGeometry x="360" y="-10" width="100" height="30" as="geometry" />
        </mxCell>
        <mxCell id="85Ydq0UuJS8T2cN9ZGe2-4" style="edgeStyle=orthogonalEdgeStyle;rounded=0;orthogonalLoop=1;jettySize=auto;html=1;exitX=1;exitY=0;exitDx=0;exitDy=0;entryX=1;entryY=0;entryDx=0;entryDy=0;" edge="1" parent="1" source="85Ydq0UuJS8T2cN9ZGe2-7" target="85Ydq0UuJS8T2cN9ZGe2-9">
          <mxGeometry relative="1" as="geometry">
            <mxPoint x="420" y="100" as="targetPoint" />
            <Array as="points">
              <mxPoint x="450" y="80" />
              <mxPoint x="450" y="100" />
            </Array>
          </mxGeometry>
        </mxCell>
        <mxCell id="85Ydq0UuJS8T2cN9ZGe2-5" value="StartTurn()" style="edgeLabel;html=1;align=center;verticalAlign=middle;resizable=0;points=[];" connectable="0" vertex="1" parent="85Ydq0UuJS8T2cN9ZGe2-4">
          <mxGeometry x="-0.596" y="-1" relative="1" as="geometry">
            <mxPoint x="39" y="-4" as="offset" />
          </mxGeometry>
        </mxCell>
        <mxCell id="85Ydq0UuJS8T2cN9ZGe2-6" value="" style="edgeStyle=orthogonalEdgeStyle;rounded=0;orthogonalLoop=1;jettySize=auto;html=1;dashed=1;endArrow=none;startFill=0;" edge="1" parent="1" source="85Ydq0UuJS8T2cN9ZGe2-7" target="85Ydq0UuJS8T2cN9ZGe2-36">
          <mxGeometry relative="1" as="geometry">
            <mxPoint x="410" y="460" as="targetPoint" />
            <Array as="points">
              <mxPoint x="410" y="470" />
              <mxPoint x="410" y="470" />
            </Array>
          </mxGeometry>
        </mxCell>
        <mxCell id="85Ydq0UuJS8T2cN9ZGe2-7" value="" style="rounded=0;whiteSpace=wrap;html=1;" vertex="1" parent="1">
          <mxGeometry x="400" y="80" width="20" height="360" as="geometry" />
        </mxCell>
        <mxCell id="85Ydq0UuJS8T2cN9ZGe2-8" style="edgeStyle=orthogonalEdgeStyle;rounded=0;orthogonalLoop=1;jettySize=auto;html=1;exitX=1;exitY=1;exitDx=0;exitDy=0;dashed=1;" edge="1" parent="1">
          <mxGeometry relative="1" as="geometry">
            <mxPoint x="430" y="400" as="sourcePoint" />
            <mxPoint x="420" y="419.97" as="targetPoint" />
            <Array as="points">
              <mxPoint x="450" y="400" />
              <mxPoint x="450" y="420" />
            </Array>
          </mxGeometry>
        </mxCell>
        <mxCell id="85Ydq0UuJS8T2cN9ZGe2-9" value="" style="rounded=0;whiteSpace=wrap;html=1;" vertex="1" parent="1">
          <mxGeometry x="410" y="100" width="20" height="300" as="geometry" />
        </mxCell>
        <mxCell id="85Ydq0UuJS8T2cN9ZGe2-10" value="" style="rounded=0;whiteSpace=wrap;html=1;" vertex="1" parent="1">
          <mxGeometry x="420" y="140" width="20" height="220" as="geometry" />
        </mxCell>
        <mxCell id="85Ydq0UuJS8T2cN9ZGe2-11" style="edgeStyle=orthogonalEdgeStyle;rounded=0;orthogonalLoop=1;jettySize=auto;html=1;exitX=1;exitY=0;exitDx=0;exitDy=0;entryX=1;entryY=0;entryDx=0;entryDy=0;" edge="1" parent="1">
          <mxGeometry relative="1" as="geometry">
            <mxPoint x="430" y="119.98" as="sourcePoint" />
            <mxPoint x="440" y="139.98" as="targetPoint" />
            <Array as="points">
              <mxPoint x="460" y="119.98" />
              <mxPoint x="460" y="139.98" />
            </Array>
          </mxGeometry>
        </mxCell>
        <mxCell id="85Ydq0UuJS8T2cN9ZGe2-12" value="UpdateValidMoved()" style="edgeLabel;html=1;align=center;verticalAlign=middle;resizable=0;points=[];" connectable="0" vertex="1" parent="85Ydq0UuJS8T2cN9ZGe2-11">
          <mxGeometry x="-0.596" y="-1" relative="1" as="geometry">
            <mxPoint x="56" y="-4" as="offset" />
          </mxGeometry>
        </mxCell>
        <mxCell id="85Ydq0UuJS8T2cN9ZGe2-13" value="CheckersBoard" style="html=1;whiteSpace=wrap;" vertex="1" parent="1">
          <mxGeometry x="630" y="-10" width="100" height="30" as="geometry" />
        </mxCell>
        <mxCell id="85Ydq0UuJS8T2cN9ZGe2-14" value="" style="edgeStyle=orthogonalEdgeStyle;rounded=0;orthogonalLoop=1;jettySize=auto;html=1;endArrow=none;startFill=0;dashed=1;exitX=0.5;exitY=1;exitDx=0;exitDy=0;" edge="1" parent="1" source="85Ydq0UuJS8T2cN9ZGe2-13" target="85Ydq0UuJS8T2cN9ZGe2-16">
          <mxGeometry relative="1" as="geometry">
            <mxPoint x="680.0000000000005" y="-180" as="sourcePoint" />
            <mxPoint x="420" y="90" as="targetPoint" />
            <Array as="points" />
          </mxGeometry>
        </mxCell>
        <mxCell id="85Ydq0UuJS8T2cN9ZGe2-15" value="" style="edgeStyle=orthogonalEdgeStyle;rounded=0;orthogonalLoop=1;jettySize=auto;html=1;endArrow=none;startFill=0;dashed=1;" edge="1" parent="1" source="85Ydq0UuJS8T2cN9ZGe2-16" target="85Ydq0UuJS8T2cN9ZGe2-29">
          <mxGeometry relative="1" as="geometry" />
        </mxCell>
        <mxCell id="85Ydq0UuJS8T2cN9ZGe2-16" value="" style="rounded=0;whiteSpace=wrap;html=1;" vertex="1" parent="1">
          <mxGeometry x="670" y="160" width="20" height="30" as="geometry" />
        </mxCell>
        <mxCell id="85Ydq0UuJS8T2cN9ZGe2-17" value="" style="endArrow=classic;html=1;rounded=0;entryX=0;entryY=0;entryDx=0;entryDy=0;" edge="1" parent="1" target="85Ydq0UuJS8T2cN9ZGe2-16">
          <mxGeometry width="50" height="50" relative="1" as="geometry">
            <mxPoint x="440" y="160" as="sourcePoint" />
            <mxPoint x="710" y="180" as="targetPoint" />
          </mxGeometry>
        </mxCell>
        <mxCell id="85Ydq0UuJS8T2cN9ZGe2-18" value="GetP1() / GetP2()" style="edgeLabel;html=1;align=center;verticalAlign=middle;resizable=0;points=[];" connectable="0" vertex="1" parent="85Ydq0UuJS8T2cN9ZGe2-17">
          <mxGeometry x="-0.487" y="-1" relative="1" as="geometry">
            <mxPoint x="41" y="-1" as="offset" />
          </mxGeometry>
        </mxCell>
        <mxCell id="85Ydq0UuJS8T2cN9ZGe2-19" value="" style="endArrow=classic;html=1;rounded=0;exitX=0;exitY=1;exitDx=0;exitDy=0;dashed=1;" edge="1" parent="1" source="85Ydq0UuJS8T2cN9ZGe2-16">
          <mxGeometry width="50" height="50" relative="1" as="geometry">
            <mxPoint x="670" y="200" as="sourcePoint" />
            <mxPoint x="440" y="190" as="targetPoint" />
          </mxGeometry>
        </mxCell>
        <mxCell id="85Ydq0UuJS8T2cN9ZGe2-20" value="Pieces: Set&amp;lt;(int, int)&amp;gt;" style="edgeLabel;html=1;align=center;verticalAlign=middle;resizable=0;points=[];" connectable="0" vertex="1" parent="85Ydq0UuJS8T2cN9ZGe2-19">
          <mxGeometry x="-0.487" y="-1" relative="1" as="geometry">
            <mxPoint x="-61" y="1" as="offset" />
          </mxGeometry>
        </mxCell>
        <mxCell id="85Ydq0UuJS8T2cN9ZGe2-21" value="foreach" style="shape=umlFrame;whiteSpace=wrap;html=1;pointerEvents=0;" vertex="1" parent="1">
          <mxGeometry x="270" y="210" width="440" height="130" as="geometry" />
        </mxCell>
        <mxCell id="85Ydq0UuJS8T2cN9ZGe2-22" value="(int, int) in Pieces" style="text;html=1;align=center;verticalAlign=middle;whiteSpace=wrap;rounded=0;" vertex="1" parent="1">
          <mxGeometry x="270" y="245" width="110" height="30" as="geometry" />
        </mxCell>
        <mxCell id="85Ydq0UuJS8T2cN9ZGe2-23" value="" style="rounded=0;whiteSpace=wrap;html=1;" vertex="1" parent="1">
          <mxGeometry x="430" y="250.01" width="20" height="59.99" as="geometry" />
        </mxCell>
        <mxCell id="85Ydq0UuJS8T2cN9ZGe2-24" style="edgeStyle=orthogonalEdgeStyle;rounded=0;orthogonalLoop=1;jettySize=auto;html=1;exitX=1;exitY=0;exitDx=0;exitDy=0;entryX=1;entryY=0;entryDx=0;entryDy=0;" edge="1" parent="1">
          <mxGeometry relative="1" as="geometry">
            <mxPoint x="440" y="229.99" as="sourcePoint" />
            <mxPoint x="450" y="249.98999999999998" as="targetPoint" />
            <Array as="points">
              <mxPoint x="470" y="229.99" />
              <mxPoint x="470" y="249.98999999999998" />
            </Array>
          </mxGeometry>
        </mxCell>
        <mxCell id="85Ydq0UuJS8T2cN9ZGe2-25" value="GetPieceMoves(int, int)" style="edgeLabel;html=1;align=center;verticalAlign=middle;resizable=0;points=[];" connectable="0" vertex="1" parent="85Ydq0UuJS8T2cN9ZGe2-24">
          <mxGeometry x="-0.596" y="-1" relative="1" as="geometry">
            <mxPoint x="66" y="-1" as="offset" />
          </mxGeometry>
        </mxCell>
        <mxCell id="85Ydq0UuJS8T2cN9ZGe2-26" style="edgeStyle=orthogonalEdgeStyle;rounded=0;orthogonalLoop=1;jettySize=auto;html=1;exitX=1;exitY=1;exitDx=0;exitDy=0;dashed=1;" edge="1" parent="1">
          <mxGeometry relative="1" as="geometry">
            <mxPoint x="450" y="310" as="sourcePoint" />
            <mxPoint x="440" y="329.97" as="targetPoint" />
            <Array as="points">
              <mxPoint x="470" y="310" />
              <mxPoint x="470" y="330" />
            </Array>
          </mxGeometry>
        </mxCell>
        <mxCell id="85Ydq0UuJS8T2cN9ZGe2-27" value=":Set&amp;lt;Move&amp;gt;" style="edgeLabel;html=1;align=center;verticalAlign=middle;resizable=0;points=[];" connectable="0" vertex="1" parent="85Ydq0UuJS8T2cN9ZGe2-26">
          <mxGeometry x="-0.4368" y="1" relative="1" as="geometry">
            <mxPoint x="21" y="1" as="offset" />
          </mxGeometry>
        </mxCell>
        <mxCell id="85Ydq0UuJS8T2cN9ZGe2-28" style="edgeStyle=orthogonalEdgeStyle;rounded=0;orthogonalLoop=1;jettySize=auto;html=1;endArrow=none;startFill=0;dashed=1;" edge="1" parent="1" source="85Ydq0UuJS8T2cN9ZGe2-29" target="85Ydq0UuJS8T2cN9ZGe2-47">
          <mxGeometry relative="1" as="geometry">
            <Array as="points">
              <mxPoint x="680" y="390" />
              <mxPoint x="680" y="390" />
            </Array>
          </mxGeometry>
        </mxCell>
        <mxCell id="85Ydq0UuJS8T2cN9ZGe2-29" value="" style="rounded=0;whiteSpace=wrap;html=1;" vertex="1" parent="1">
          <mxGeometry x="670" y="260" width="20" height="30" as="geometry" />
        </mxCell>
        <mxCell id="85Ydq0UuJS8T2cN9ZGe2-30" value="" style="endArrow=classic;html=1;rounded=0;" edge="1" parent="1">
          <mxGeometry width="50" height="50" relative="1" as="geometry">
            <mxPoint x="450" y="260" as="sourcePoint" />
            <mxPoint x="670" y="260" as="targetPoint" />
          </mxGeometry>
        </mxCell>
        <mxCell id="85Ydq0UuJS8T2cN9ZGe2-31" value="GetPiece(int, int)" style="edgeLabel;html=1;align=center;verticalAlign=middle;resizable=0;points=[];" connectable="0" vertex="1" parent="85Ydq0UuJS8T2cN9ZGe2-30">
          <mxGeometry x="-0.487" y="-1" relative="1" as="geometry">
            <mxPoint x="41" y="-1" as="offset" />
          </mxGeometry>
        </mxCell>
        <mxCell id="85Ydq0UuJS8T2cN9ZGe2-32" value="" style="endArrow=classic;html=1;rounded=0;dashed=1;" edge="1" parent="1">
          <mxGeometry width="50" height="50" relative="1" as="geometry">
            <mxPoint x="670" y="290" as="sourcePoint" />
            <mxPoint x="450" y="290" as="targetPoint" />
          </mxGeometry>
        </mxCell>
        <mxCell id="85Ydq0UuJS8T2cN9ZGe2-33" value=":Pieces" style="edgeLabel;html=1;align=center;verticalAlign=middle;resizable=0;points=[];" connectable="0" vertex="1" parent="85Ydq0UuJS8T2cN9ZGe2-32">
          <mxGeometry x="-0.487" y="-1" relative="1" as="geometry">
            <mxPoint x="-53" y="1" as="offset" />
          </mxGeometry>
        </mxCell>
        <mxCell id="85Ydq0UuJS8T2cN9ZGe2-34" style="edgeStyle=orthogonalEdgeStyle;rounded=0;orthogonalLoop=1;jettySize=auto;html=1;exitX=1;exitY=1;exitDx=0;exitDy=0;dashed=1;" edge="1" parent="1" source="85Ydq0UuJS8T2cN9ZGe2-10">
          <mxGeometry relative="1" as="geometry">
            <mxPoint x="440" y="360" as="sourcePoint" />
            <mxPoint x="430" y="379.97" as="targetPoint" />
            <Array as="points">
              <mxPoint x="460" y="360" />
              <mxPoint x="460" y="380" />
            </Array>
          </mxGeometry>
        </mxCell>
        <mxCell id="85Ydq0UuJS8T2cN9ZGe2-35" value="Loop" style="shape=umlFrame;whiteSpace=wrap;html=1;pointerEvents=0;" vertex="1" parent="1">
          <mxGeometry x="-190" y="60" width="1010" height="1240" as="geometry" />
        </mxCell>
        <mxCell id="85Ydq0UuJS8T2cN9ZGe2-36" value="" style="html=1;points=[[0,0,0,0,5],[0,1,0,0,-5],[1,0,0,0,5],[1,1,0,0,-5]];perimeter=orthogonalPerimeter;outlineConnect=0;targetShapes=umlLifeline;portConstraint=eastwest;newEdgeStyle={&quot;curved&quot;:0,&quot;rounded&quot;:0};" vertex="1" parent="1">
          <mxGeometry x="400" y="510" width="20" height="80" as="geometry" />
        </mxCell>
        <mxCell id="85Ydq0UuJS8T2cN9ZGe2-37" value="" style="endArrow=classic;html=1;rounded=0;entryX=-0.007;entryY=0;entryDx=0;entryDy=0;entryPerimeter=0;" edge="1" parent="1" target="85Ydq0UuJS8T2cN9ZGe2-36">
          <mxGeometry width="50" height="50" relative="1" as="geometry">
            <mxPoint x="200" y="510" as="sourcePoint" />
            <mxPoint x="510" y="500" as="targetPoint" />
          </mxGeometry>
        </mxCell>
        <mxCell id="85Ydq0UuJS8T2cN9ZGe2-38" value="ReceiveInput(int, int)" style="edgeLabel;html=1;align=center;verticalAlign=middle;resizable=0;points=[];" connectable="0" vertex="1" parent="85Ydq0UuJS8T2cN9ZGe2-37">
          <mxGeometry x="-0.2295" y="-3" relative="1" as="geometry">
            <mxPoint x="8" y="-3" as="offset" />
          </mxGeometry>
        </mxCell>
        <mxCell id="85Ydq0UuJS8T2cN9ZGe2-39" value="Loop" style="shape=umlFrame;whiteSpace=wrap;html=1;pointerEvents=0;" vertex="1" parent="1">
          <mxGeometry x="10" y="470" width="470" height="170" as="geometry" />
        </mxCell>
        <mxCell id="85Ydq0UuJS8T2cN9ZGe2-40" value="Winner == ONGOING" style="text;html=1;align=center;verticalAlign=middle;whiteSpace=wrap;rounded=0;" vertex="1" parent="1">
          <mxGeometry x="-190" y="90" width="130" height="30" as="geometry" />
        </mxCell>
        <mxCell id="85Ydq0UuJS8T2cN9ZGe2-41" value="" style="endArrow=classic;html=1;rounded=0;entryX=-0.007;entryY=0;entryDx=0;entryDy=0;entryPerimeter=0;dashed=1;" edge="1" parent="1">
          <mxGeometry width="50" height="50" relative="1" as="geometry">
            <mxPoint x="400" y="590" as="sourcePoint" />
            <mxPoint x="200" y="590" as="targetPoint" />
          </mxGeometry>
        </mxCell>
        <mxCell id="85Ydq0UuJS8T2cN9ZGe2-42" value="Break" style="shape=umlFrame;whiteSpace=wrap;html=1;pointerEvents=0;width=50;height=30;" vertex="1" parent="1">
          <mxGeometry x="50" y="550" width="390" height="70" as="geometry" />
        </mxCell>
        <mxCell id="85Ydq0UuJS8T2cN9ZGe2-43" value="Previous Input Does Not Specify a Move" style="text;html=1;align=center;verticalAlign=middle;whiteSpace=wrap;rounded=0;" vertex="1" parent="1">
          <mxGeometry x="10" y="500" width="150" height="40" as="geometry" />
        </mxCell>
        <mxCell id="85Ydq0UuJS8T2cN9ZGe2-44" value="" style="edgeStyle=orthogonalEdgeStyle;rounded=0;orthogonalLoop=1;jettySize=auto;html=1;dashed=1;endArrow=none;startFill=0;" edge="1" parent="1" source="85Ydq0UuJS8T2cN9ZGe2-36" target="85Ydq0UuJS8T2cN9ZGe2-45">
          <mxGeometry relative="1" as="geometry">
            <mxPoint x="410" y="610" as="targetPoint" />
            <Array as="points">
              <mxPoint x="410" y="630" />
              <mxPoint x="410" y="630" />
            </Array>
            <mxPoint x="410" y="590" as="sourcePoint" />
          </mxGeometry>
        </mxCell>
        <mxCell id="85Ydq0UuJS8T2cN9ZGe2-45" value="" style="html=1;points=[[0,0,0,0,5],[0,1,0,0,-5],[1,0,0,0,5],[1,1,0,0,-5]];perimeter=orthogonalPerimeter;outlineConnect=0;targetShapes=umlLifeline;portConstraint=eastwest;newEdgeStyle={&quot;curved&quot;:0,&quot;rounded&quot;:0};" vertex="1" parent="1">
          <mxGeometry x="400" y="620" width="20" height="140" as="geometry" />
        </mxCell>
        <mxCell id="85Ydq0UuJS8T2cN9ZGe2-46" value="Input Does Not Specify a Move" style="text;html=1;align=center;verticalAlign=middle;whiteSpace=wrap;rounded=0;" vertex="1" parent="1">
          <mxGeometry x="50" y="580" width="120" height="40" as="geometry" />
        </mxCell>
        <mxCell id="85Ydq0UuJS8T2cN9ZGe2-47" value="" style="html=1;points=[[0,0,0,0,5],[0,1,0,0,-5],[1,0,0,0,5],[1,1,0,0,-5]];perimeter=orthogonalPerimeter;outlineConnect=0;targetShapes=umlLifeline;portConstraint=eastwest;newEdgeStyle={&quot;curved&quot;:0,&quot;rounded&quot;:0};" vertex="1" parent="1">
          <mxGeometry x="670" y="670" width="20" height="40" as="geometry" />
        </mxCell>
        <mxCell id="85Ydq0UuJS8T2cN9ZGe2-48" value="" style="endArrow=classic;html=1;rounded=0;exitX=1.019;exitY=0.186;exitDx=0;exitDy=0;exitPerimeter=0;" edge="1" parent="1">
          <mxGeometry width="50" height="50" relative="1" as="geometry">
            <mxPoint x="420" y="670" as="sourcePoint" />
            <mxPoint x="670" y="670" as="targetPoint" />
          </mxGeometry>
        </mxCell>
        <mxCell id="85Ydq0UuJS8T2cN9ZGe2-49" value="MakeMove(Move)" style="edgeLabel;html=1;align=center;verticalAlign=middle;resizable=0;points=[];" connectable="0" vertex="1" parent="85Ydq0UuJS8T2cN9ZGe2-48">
          <mxGeometry x="-0.1973" y="-1" relative="1" as="geometry">
            <mxPoint x="30" y="-1" as="offset" />
          </mxGeometry>
        </mxCell>
        <mxCell id="85Ydq0UuJS8T2cN9ZGe2-50" value="" style="endArrow=classic;html=1;rounded=0;exitX=1.019;exitY=0.186;exitDx=0;exitDy=0;exitPerimeter=0;dashed=1;" edge="1" parent="1">
          <mxGeometry width="50" height="50" relative="1" as="geometry">
            <mxPoint x="670" y="710" as="sourcePoint" />
            <mxPoint x="420" y="710" as="targetPoint" />
          </mxGeometry>
        </mxCell>
        <mxCell id="85Ydq0UuJS8T2cN9ZGe2-51" value="Alt" style="shape=umlFrame;whiteSpace=wrap;html=1;pointerEvents=0;width=50;height=30;" vertex="1" parent="1">
          <mxGeometry x="-160" y="730" width="930" height="410" as="geometry" />
        </mxCell>
        <mxCell id="85Ydq0UuJS8T2cN9ZGe2-52" value="The Move was a Capture" style="text;html=1;align=center;verticalAlign=middle;whiteSpace=wrap;rounded=0;" vertex="1" parent="1">
          <mxGeometry x="-160" y="760" width="100" height="40" as="geometry" />
        </mxCell>
        <mxCell id="85Ydq0UuJS8T2cN9ZGe2-53" value="Loop" style="shape=umlFrame;whiteSpace=wrap;html=1;pointerEvents=0;" vertex="1" parent="1">
          <mxGeometry x="-120" y="800" width="850" height="300" as="geometry" />
        </mxCell>
        <mxCell id="85Ydq0UuJS8T2cN9ZGe2-54" value="CanCatpure&lt;div&gt;AND&lt;/div&gt;&lt;div&gt;CurrentPiece was not Kinged this Turn&lt;/div&gt;" style="text;html=1;align=center;verticalAlign=middle;whiteSpace=wrap;rounded=0;" vertex="1" parent="1">
          <mxGeometry x="-120" y="830" width="130" height="70" as="geometry" />
        </mxCell>
        <mxCell id="85Ydq0UuJS8T2cN9ZGe2-55" value="" style="edgeStyle=orthogonalEdgeStyle;rounded=0;orthogonalLoop=1;jettySize=auto;html=1;dashed=1;endArrow=none;startFill=0;" edge="1" parent="1" source="85Ydq0UuJS8T2cN9ZGe2-45" target="85Ydq0UuJS8T2cN9ZGe2-56">
          <mxGeometry relative="1" as="geometry">
            <mxPoint x="410" y="800" as="targetPoint" />
            <Array as="points">
              <mxPoint x="410" y="750" />
              <mxPoint x="410" y="750" />
            </Array>
            <mxPoint x="411" y="767" as="sourcePoint" />
          </mxGeometry>
        </mxCell>
        <mxCell id="85Ydq0UuJS8T2cN9ZGe2-56" value="" style="html=1;points=[[0,0,0,0,5],[0,1,0,0,-5],[1,0,0,0,5],[1,1,0,0,-5]];perimeter=orthogonalPerimeter;outlineConnect=0;targetShapes=umlLifeline;portConstraint=eastwest;newEdgeStyle={&quot;curved&quot;:0,&quot;rounded&quot;:0};" vertex="1" parent="1">
          <mxGeometry x="400" y="860" width="20" height="80" as="geometry" />
        </mxCell>
        <mxCell id="85Ydq0UuJS8T2cN9ZGe2-57" value="" style="endArrow=classic;html=1;rounded=0;entryX=-0.007;entryY=0;entryDx=0;entryDy=0;entryPerimeter=0;" edge="1" parent="1" target="85Ydq0UuJS8T2cN9ZGe2-56">
          <mxGeometry width="50" height="50" relative="1" as="geometry">
            <mxPoint x="200" y="860" as="sourcePoint" />
            <mxPoint x="510" y="850" as="targetPoint" />
          </mxGeometry>
        </mxCell>
        <mxCell id="85Ydq0UuJS8T2cN9ZGe2-58" value="ReceiveInput(int, int)" style="edgeLabel;html=1;align=center;verticalAlign=middle;resizable=0;points=[];" connectable="0" vertex="1" parent="85Ydq0UuJS8T2cN9ZGe2-57">
          <mxGeometry x="-0.2295" y="-3" relative="1" as="geometry">
            <mxPoint x="8" y="-3" as="offset" />
          </mxGeometry>
        </mxCell>
        <mxCell id="85Ydq0UuJS8T2cN9ZGe2-59" value="Loop" style="shape=umlFrame;whiteSpace=wrap;html=1;pointerEvents=0;" vertex="1" parent="1">
          <mxGeometry x="10" y="820" width="470" height="170" as="geometry" />
        </mxCell>
        <mxCell id="85Ydq0UuJS8T2cN9ZGe2-60" value="" style="endArrow=classic;html=1;rounded=0;entryX=-0.007;entryY=0;entryDx=0;entryDy=0;entryPerimeter=0;dashed=1;" edge="1" parent="1">
          <mxGeometry width="50" height="50" relative="1" as="geometry">
            <mxPoint x="400" y="940" as="sourcePoint" />
            <mxPoint x="200" y="940" as="targetPoint" />
          </mxGeometry>
        </mxCell>
        <mxCell id="85Ydq0UuJS8T2cN9ZGe2-61" value="Break" style="shape=umlFrame;whiteSpace=wrap;html=1;pointerEvents=0;width=50;height=30;" vertex="1" parent="1">
          <mxGeometry x="50" y="900" width="390" height="70" as="geometry" />
        </mxCell>
        <mxCell id="85Ydq0UuJS8T2cN9ZGe2-62" value="Previous Input Does Not Specify a Move" style="text;html=1;align=center;verticalAlign=middle;whiteSpace=wrap;rounded=0;" vertex="1" parent="1">
          <mxGeometry x="10" y="850" width="150" height="40" as="geometry" />
        </mxCell>
        <mxCell id="85Ydq0UuJS8T2cN9ZGe2-63" value="" style="edgeStyle=orthogonalEdgeStyle;rounded=0;orthogonalLoop=1;jettySize=auto;html=1;dashed=1;endArrow=none;startFill=0;" edge="1" parent="1" source="85Ydq0UuJS8T2cN9ZGe2-56" target="85Ydq0UuJS8T2cN9ZGe2-65">
          <mxGeometry relative="1" as="geometry">
            <mxPoint x="410" y="970" as="targetPoint" />
            <Array as="points">
              <mxPoint x="410" y="930" />
              <mxPoint x="410" y="930" />
            </Array>
            <mxPoint x="410" y="940" as="sourcePoint" />
          </mxGeometry>
        </mxCell>
        <mxCell id="85Ydq0UuJS8T2cN9ZGe2-64" value="Input Does Not Specify a Move" style="text;html=1;align=center;verticalAlign=middle;whiteSpace=wrap;rounded=0;" vertex="1" parent="1">
          <mxGeometry x="50" y="930" width="120" height="40" as="geometry" />
        </mxCell>
        <mxCell id="85Ydq0UuJS8T2cN9ZGe2-65" value="" style="html=1;points=[[0,0,0,0,5],[0,1,0,0,-5],[1,0,0,0,5],[1,1,0,0,-5]];perimeter=orthogonalPerimeter;outlineConnect=0;targetShapes=umlLifeline;portConstraint=eastwest;newEdgeStyle={&quot;curved&quot;:0,&quot;rounded&quot;:0};" vertex="1" parent="1">
          <mxGeometry x="400" y="980" width="20" height="290" as="geometry" />
        </mxCell>
        <mxCell id="85Ydq0UuJS8T2cN9ZGe2-66" value="" style="html=1;points=[[0,0,0,0,5],[0,1,0,0,-5],[1,0,0,0,5],[1,1,0,0,-5]];perimeter=orthogonalPerimeter;outlineConnect=0;targetShapes=umlLifeline;portConstraint=eastwest;newEdgeStyle={&quot;curved&quot;:0,&quot;rounded&quot;:0};" vertex="1" parent="1">
          <mxGeometry x="670" y="1030" width="20" height="40" as="geometry" />
        </mxCell>
        <mxCell id="85Ydq0UuJS8T2cN9ZGe2-67" value="" style="endArrow=classic;html=1;rounded=0;exitX=1.019;exitY=0.186;exitDx=0;exitDy=0;exitPerimeter=0;" edge="1" parent="1">
          <mxGeometry width="50" height="50" relative="1" as="geometry">
            <mxPoint x="420" y="1030" as="sourcePoint" />
            <mxPoint x="670" y="1030" as="targetPoint" />
          </mxGeometry>
        </mxCell>
        <mxCell id="85Ydq0UuJS8T2cN9ZGe2-68" value="MakeMove(Move)" style="edgeLabel;html=1;align=center;verticalAlign=middle;resizable=0;points=[];" connectable="0" vertex="1" parent="85Ydq0UuJS8T2cN9ZGe2-67">
          <mxGeometry x="-0.1973" y="-1" relative="1" as="geometry">
            <mxPoint x="30" y="-1" as="offset" />
          </mxGeometry>
        </mxCell>
        <mxCell id="85Ydq0UuJS8T2cN9ZGe2-69" value="" style="endArrow=classic;html=1;rounded=0;exitX=1.019;exitY=0.186;exitDx=0;exitDy=0;exitPerimeter=0;dashed=1;" edge="1" parent="1">
          <mxGeometry width="50" height="50" relative="1" as="geometry">
            <mxPoint x="670" y="1070" as="sourcePoint" />
            <mxPoint x="420" y="1070" as="targetPoint" />
          </mxGeometry>
        </mxCell>
        <mxCell id="85Ydq0UuJS8T2cN9ZGe2-70" value="" style="endArrow=none;dashed=1;html=1;rounded=0;" edge="1" parent="1" source="85Ydq0UuJS8T2cN9ZGe2-66" target="85Ydq0UuJS8T2cN9ZGe2-47">
          <mxGeometry width="50" height="50" relative="1" as="geometry">
            <mxPoint x="350" y="910" as="sourcePoint" />
            <mxPoint x="400" y="860" as="targetPoint" />
          </mxGeometry>
        </mxCell>
        <mxCell id="85Ydq0UuJS8T2cN9ZGe2-71" value="" style="rounded=0;whiteSpace=wrap;html=1;" vertex="1" parent="1">
          <mxGeometry x="409.95" y="1180" width="20" height="40" as="geometry" />
        </mxCell>
        <mxCell id="85Ydq0UuJS8T2cN9ZGe2-72" style="edgeStyle=orthogonalEdgeStyle;rounded=0;orthogonalLoop=1;jettySize=auto;html=1;exitX=1;exitY=0;exitDx=0;exitDy=0;entryX=1;entryY=0;entryDx=0;entryDy=0;" edge="1" parent="1" target="85Ydq0UuJS8T2cN9ZGe2-71">
          <mxGeometry relative="1" as="geometry">
            <mxPoint x="419.95" y="1180" as="targetPoint" />
            <Array as="points">
              <mxPoint x="449.95" y="1160" />
              <mxPoint x="449.95" y="1180" />
            </Array>
            <mxPoint x="419.95" y="1160" as="sourcePoint" />
          </mxGeometry>
        </mxCell>
        <mxCell id="85Ydq0UuJS8T2cN9ZGe2-73" value="EndTurn()" style="edgeLabel;html=1;align=center;verticalAlign=middle;resizable=0;points=[];" connectable="0" vertex="1" parent="85Ydq0UuJS8T2cN9ZGe2-72">
          <mxGeometry x="-0.596" y="-1" relative="1" as="geometry">
            <mxPoint x="39" y="-4" as="offset" />
          </mxGeometry>
        </mxCell>
        <mxCell id="85Ydq0UuJS8T2cN9ZGe2-74" style="edgeStyle=orthogonalEdgeStyle;rounded=0;orthogonalLoop=1;jettySize=auto;html=1;exitX=1;exitY=1;exitDx=0;exitDy=0;dashed=1;" edge="1" parent="1">
          <mxGeometry relative="1" as="geometry">
            <mxPoint x="429.97" y="1220" as="sourcePoint" />
            <mxPoint x="419.97" y="1239.97" as="targetPoint" />
            <Array as="points">
              <mxPoint x="449.97" y="1220" />
              <mxPoint x="449.97" y="1240" />
            </Array>
          </mxGeometry>
        </mxCell>
        <mxCell id="85Ydq0UuJS8T2cN9ZGe2-75" value="" style="endArrow=classic;html=1;rounded=0;entryX=-0.007;entryY=0;entryDx=0;entryDy=0;entryPerimeter=0;dashed=1;" edge="1" parent="1">
          <mxGeometry width="50" height="50" relative="1" as="geometry">
            <mxPoint x="400" y="1270" as="sourcePoint" />
            <mxPoint x="200" y="1270" as="targetPoint" />
          </mxGeometry>
        </mxCell>
        <mxCell id="85Ydq0UuJS8T2cN9ZGe2-76" value="" style="edgeStyle=orthogonalEdgeStyle;rounded=0;orthogonalLoop=1;jettySize=auto;html=1;dashed=1;endArrow=none;startFill=0;" edge="1" parent="1" source="85Ydq0UuJS8T2cN9ZGe2-65">
          <mxGeometry relative="1" as="geometry">
            <mxPoint x="410" y="1380" as="targetPoint" />
            <Array as="points">
              <mxPoint x="410" y="1320" />
              <mxPoint x="410" y="1320" />
            </Array>
            <mxPoint x="410" y="1294" as="sourcePoint" />
          </mxGeometry>
        </mxCell>
        <mxCell id="85Ydq0UuJS8T2cN9ZGe2-77" value="" style="edgeStyle=orthogonalEdgeStyle;rounded=0;orthogonalLoop=1;jettySize=auto;html=1;dashed=1;endArrow=none;startFill=0;" edge="1" parent="1" source="85Ydq0UuJS8T2cN9ZGe2-66">
          <mxGeometry relative="1" as="geometry">
            <mxPoint x="680" y="1380" as="targetPoint" />
            <Array as="points">
              <mxPoint x="680" y="1380" />
            </Array>
            <mxPoint x="420" y="1280" as="sourcePoint" />
          </mxGeometry>
        </mxCell>
        <mxCell id="85Ydq0UuJS8T2cN9ZGe2-78" value="" style="endArrow=classic;html=1;rounded=0;" edge="1" parent="1" target="85Ydq0UuJS8T2cN9ZGe2-3">
          <mxGeometry width="50" height="50" relative="1" as="geometry">
            <mxPoint x="200" y="5" as="sourcePoint" />
            <mxPoint x="300" y="130" as="targetPoint" />
          </mxGeometry>
        </mxCell>
        <mxCell id="85Ydq0UuJS8T2cN9ZGe2-79" value="&amp;lt;&amp;lt;create&amp;gt;&amp;gt;(GameData)" style="edgeLabel;html=1;align=center;verticalAlign=middle;resizable=0;points=[];" vertex="1" connectable="0" parent="85Ydq0UuJS8T2cN9ZGe2-78">
          <mxGeometry x="-0.4141" y="3" relative="1" as="geometry">
            <mxPoint x="33" y="3" as="offset" />
          </mxGeometry>
        </mxCell>
        <mxCell id="85Ydq0UuJS8T2cN9ZGe2-80" value="" style="endArrow=classic;html=1;rounded=0;entryX=0;entryY=0.5;entryDx=0;entryDy=0;exitX=1;exitY=0.5;exitDx=0;exitDy=0;" edge="1" parent="1" source="85Ydq0UuJS8T2cN9ZGe2-3" target="85Ydq0UuJS8T2cN9ZGe2-13">
          <mxGeometry width="50" height="50" relative="1" as="geometry">
            <mxPoint x="460" y="4" as="sourcePoint" />
            <mxPoint x="670" y="3.75" as="targetPoint" />
          </mxGeometry>
        </mxCell>
        <mxCell id="85Ydq0UuJS8T2cN9ZGe2-81" value="&amp;lt;&amp;lt;create&amp;gt;&amp;gt;(BoardData)" style="edgeLabel;html=1;align=center;verticalAlign=middle;resizable=0;points=[];" connectable="0" vertex="1" parent="85Ydq0UuJS8T2cN9ZGe2-80">
          <mxGeometry x="-0.487" y="-1" relative="1" as="geometry">
            <mxPoint x="37" y="-1" as="offset" />
          </mxGeometry>
        </mxCell>
      </root>
    </mxGraphModel>
  </diagram>
</mxfile>
